# xmcd CD database file
#
# Track frame offsets:
#	150
#	28664
#	55086
#	87744
#	111813
#	138077
#	163271
#
# Disc length: 2912 seconds
#
# Revision: 2
# Processed by: cddbd v1.5.2PL0 Copyright (c) Steve Scherf et al.
# Submitted via: CDex 1.70beta3
#
DISCID=5a0b5e07
DTITLE=Don Rendell - Ian Carr Quintet - Dusk Fire
DYEAR=1966
DGENRE=Jazz
TTITLE0=Ruth
TTITLE1=Tan Samfu
TTITLE2=Jubal
TTITLE3=Spooks
TTITLE4=Prayer
TTITLE5=Hot Rod
TTITLE6=Dusk Fire
EXTD=YEAR: 1966
EXTT0=
EXTT1=
EXTT2=
EXTT3=
EXTT4=
EXTT5=
EXTT6=
PLAYORDER=
